<?xml version="1.0" encoding="UTF-8" standalone="no"?><!DOCTYPE svg PUBLIC "-//W3C//DTD SVG 1.1//EN" "http://www.w3.org/Graphics/SVG/1.1/DTD/svg11.dtd"><svg width="100%" height="100%" viewBox="0 0 686 395" version="1.1" xmlns="http://www.w3.org/2000/svg" xmlns:xlink="http://www.w3.org/1999/xlink" xml:space="preserve" xmlns:serif="http://www.serif.com/" style="fill-rule:evenodd;clip-rule:evenodd;stroke-linejoin:round;stroke-miterlimit:1.41421;"><path d="M642.74,223.54c-25.275,28.436 -18.878,67.961 -6.152,99.267c4.285,10.48 9.127,21.555 6.25,33.138c-3.52,14.165 -17.868,25.075 -32.578,31.183c-26.805,11.139 -57.919,10.223 -81.003,-2.376c-19.949,-10.892 -33.508,-29.476 -53.867,-39.832c-34.029,-17.269 -79.467,-8.03 -118.704,6.813c-27.76,10.489 -58.238,23.867 -84.548,15.475c-18.51,-5.906 -30.508,-21.811 -36.47,-38.985c-2.877,-8.291 -4.763,-17.324 -10.896,-23.72c-3.673,-3.8 -8.57,-6.41 -13.645,-8.529c-46.344,-19.568 -107.489,-5.105 -152.328,-27.108c-30.258,-14.834 -48.26,-44.657 -54.981,-76.316c-6.722,-31.659 -3.41,-65.333 1.083,-98.47c3.189,-23.547 7.762,-48.736 25.324,-67.613c18.578,-19.966 48.713,-28.468 75.292,-26.073c26.578,2.394 49.949,14.252 70.291,28.568c25.421,17.856 48.584,40.5 80.862,46.699c21.981,4.235 45.671,0.261 68.773,-1.831c38.625,-3.457 76.901,-1.534 114.921,0.751c36.403,2.188 73.039,4.757 107.226,14.087c24.192,6.602 43.058,19.751 65.737,28.496c14.783,5.699 31.249,6.698 45.102,14.192c17.066,9.226 32.149,25.955 26.217,46.626c-5.638,19.682 -28.494,30.45 -41.906,45.558Z" style="fill:#4a7c75;fill-opacity:0.25;fill-rule:nonzero;"/><path d="M214.75,265.503c-1.798,0 -3.332,-0.234 -4.6,-0.704c-1.27,-0.47 -2.269,-1.161 -3.001,-2.076c-0.731,-0.915 -1.258,-1.97 -1.582,-3.164c-0.323,-1.195 -0.485,-2.598 -0.485,-4.207l0,-10.81c0,-1.647 0.162,-3.077 0.485,-4.289c0.324,-1.215 0.851,-2.275 1.582,-3.183c0.732,-0.909 1.728,-1.592 2.991,-2.05c1.262,-0.457 2.799,-0.685 4.61,-0.685c1.735,0 3.214,0.207 4.437,0.622c1.224,0.414 2.182,1.024 2.874,1.829c0.692,0.804 1.191,1.719 1.495,2.743c0.303,1.024 0.456,2.213 0.456,3.568l0,2.67l-6.951,0l0,-3.055c0,-0.476 -0.006,-0.835 -0.019,-1.079c-0.014,-0.244 -0.058,-0.558 -0.136,-0.943c-0.078,-0.383 -0.191,-0.672 -0.34,-0.868c-0.15,-0.195 -0.378,-0.368 -0.689,-0.521c-0.311,-0.152 -0.686,-0.229 -1.127,-0.229c-0.439,0 -0.815,0.077 -1.125,0.229c-0.311,0.153 -0.547,0.335 -0.709,0.549c-0.161,0.214 -0.291,0.506 -0.389,0.878c-0.096,0.371 -0.154,0.709 -0.173,1.014c-0.021,0.305 -0.03,0.683 -0.03,1.135l0,14.14c0,1.218 0.168,2.148 0.505,2.789c0.335,0.639 0.977,0.96 1.921,0.96c0.428,0 0.793,-0.076 1.098,-0.228c0.304,-0.153 0.534,-0.333 0.689,-0.54c0.156,-0.207 0.274,-0.5 0.359,-0.879c0.085,-0.377 0.132,-0.706 0.146,-0.987c0.013,-0.28 0.019,-0.652 0.019,-1.115l0,-3.183l6.951,0l0,2.615c0,1.085 -0.091,2.067 -0.272,2.944c-0.181,0.879 -0.488,1.706 -0.922,2.479c-0.434,0.775 -0.996,1.425 -1.69,1.949c-0.692,0.523 -1.575,0.936 -2.649,1.234c-1.075,0.3 -2.318,0.448 -3.729,0.448Z" style="fill:#333;fill-rule:nonzero;"/><path d="M252.875,247.65l1.825,0c1.449,0 2.472,-0.352 3.067,-1.06c0.596,-0.707 0.893,-1.774 0.893,-3.201c0,-1.402 -0.269,-2.441 -0.805,-3.118c-0.537,-0.677 -1.467,-1.016 -2.787,-1.016l-2.193,0l0,8.395Zm-7.107,17.433l0,-30.327l8.776,0c1.36,0 2.563,0.073 3.611,0.22c1.048,0.145 2.033,0.401 2.952,0.768c0.918,0.365 1.675,0.847 2.271,1.445c0.595,0.597 1.061,1.365 1.398,2.304c0.336,0.939 0.505,2.037 0.505,3.293c0,1.987 -0.285,3.584 -0.855,4.792c-0.569,1.207 -1.598,2.146 -3.087,2.817l4.428,14.688l-7.36,0l-3.532,-13.573l-2,0l0,13.573l-7.107,0Z" style="fill:#333;fill-rule:nonzero;"/><path d="M287.426,265.083l0,-30.327l14.463,0l0,4.572l-7.357,0l0,7.5l5.611,0l0,4.664l-5.611,0l0,9.054l7.436,0l0,4.537l-14.542,0Z" style="fill:#333;fill-rule:nonzero;"/><path d="M329.995,254.638l3.437,0l-1.728,-11.743l-1.709,11.743Zm-8.445,10.445l6.096,-30.327l8.038,0l6.058,30.327l-6.563,0l-1.107,-6.439l-4.698,0l-1.087,6.439l-6.737,0Z" style="fill:#333;fill-rule:nonzero;"/><path d="M365.013,265.083l0,-25.37l-4.951,0l0,-4.957l16.968,0l0,4.957l-4.891,0l0,25.37l-7.126,0Z" style="fill:#333;fill-rule:nonzero;"/><rect x="397.739" y="234.756" width="7.105" height="30.327" style="fill:#333;"/><path d="M431.863,265.083l-5.824,-30.327l6.076,0l3.456,20.449l3.204,-20.449l6.466,0l-5.903,30.327l-7.475,0Z" style="fill:#333;fill-rule:nonzero;"/><path d="M466.337,265.083l0,-30.327l14.464,0l0,4.572l-7.358,0l0,7.5l5.611,0l0,4.664l-5.611,0l0,9.054l7.436,0l0,4.537l-14.542,0Z" style="fill:#333;fill-rule:nonzero;"/><path d="M256.113,129.382c-24.29,0 -41.297,15.092 -41.297,37.536c0,22.883 13.315,36.359 40.048,36.359c6.087,0 12.432,-2.302 17.998,-4.851c4.369,-2.009 6.085,-2.303 7.23,-2.303c2.236,0 3.224,3.43 3.328,5.733l2.132,0l0,-19.895c0,-7.399 0.729,-8.281 4.37,-8.625l0,-2.009c-3.641,0.245 -9.622,0.343 -16.436,0.343c-6.398,0 -15.552,-0.098 -20.337,-0.343l0,2.009c8.946,0.344 10.766,1.911 10.766,11.664l0,10.044c0,2.402 -0.728,4.02 -2.236,4.999c-1.301,0.834 -2.966,1.225 -5.254,1.225c-10.298,0 -17.112,-10.633 -17.112,-34.742c0,-15.045 4.682,-34.008 21.065,-34.008c3.745,0 8.011,1.077 10.975,2.988c7.022,4.509 8.843,10.732 9.83,20.386l2.445,0c0,-12.642 0.105,-19.748 0.417,-25.089l-2.446,0c-0.416,4.116 -1.195,6.027 -2.652,6.027c-0.676,0 -1.405,-0.294 -2.132,-0.931c-4.786,-3.577 -10.768,-6.517 -20.702,-6.517Z" style="fill:#333;fill-rule:nonzero;"/><path d="M337.951,148.345c-6.189,0 -10.975,2.451 -13.783,7.547l0,-7.203c-5.306,0.979 -11.391,1.371 -18.517,1.371c-2.133,0 -4.369,-0.098 -6.607,-0.294l0,2.107c4.474,0 5.983,2.794 5.983,8.821l0,31.852c0,5.586 -1.613,7.203 -5.983,7.203l0,2.107c3.278,-0.098 10.664,-0.392 17.061,-0.392c6.814,0 13.94,0.294 17.216,0.392l0,-2.107c-6.449,0 -9.153,-1.813 -9.153,-8.233l0,-30.086c0,-4.018 2.808,-7.547 6.293,-8.968c1.092,-0.49 2.236,-0.687 3.433,-0.687c-3.225,2.01 -5.461,4.803 -5.461,9.361c0,4.311 3.223,7.203 9.518,7.203c5.826,0 9.778,-3.823 9.778,-9.85c0,-4.606 -2.132,-10.144 -9.778,-10.144Z" style="fill:#333;fill-rule:nonzero;"/><path d="M382.339,148.345c-7.438,0 -12.692,1.127 -17.061,3.234c-3.797,1.911 -6.605,4.999 -6.605,9.213c0,4.949 3.432,8.771 8.738,8.771c6.189,0 10.246,-3.724 10.246,-8.427c0,-4.558 -2.548,-7.45 -7.125,-9.066c1.561,-0.98 3.797,-1.715 5.618,-1.715c6.813,0 7.905,5.144 7.905,8.232l0,8.967c0,4.509 -6.502,6.518 -14.824,9.311c-9.362,2.891 -13.523,7.35 -13.523,14.161c0,6.91 4.89,11.515 13.419,11.515c6.605,0 12.275,-2.988 15.24,-7.595c0.104,4.02 2.966,7.595 10.975,7.595c6.086,0 10.454,-0.979 13.836,-3.675l-1.041,-1.713c-0.988,0.685 -2.029,1.469 -3.328,1.469c-1.145,0 -1.613,-1.078 -1.613,-4.312l0,-26.854c0,-6.958 -0.519,-11.172 -3.485,-14.064c-4.057,-4.018 -9.934,-5.047 -17.372,-5.047Zm1.716,44.495c-1.3,1.274 -2.444,1.666 -3.952,1.666c-3.07,0 -5.41,-1.862 -5.41,-7.106c0,-4.9 2.028,-8.429 5.202,-11.319c1.507,-1.421 3.275,-3.039 4.16,-4.411l0,21.17Z" style="fill:#333;fill-rule:nonzero;"/><path d="M462.98,150.158c-2.6,0 -8.218,-0.098 -11.235,-0.392l0,2.107c4.421,0.295 7.802,3.528 7.802,10.095c0,2.794 -0.572,6.223 -2.029,10.291l-4.42,12.839l-13.16,-29.402c-0.312,-0.637 -0.416,-1.127 -0.416,-1.568c0,-2.206 3.172,-2.255 6.397,-2.255l0,-2.107c-4.264,0.294 -8.842,0.589 -15.447,0.589c-5.358,0 -11.703,-0.197 -17.373,-0.589l0,2.107c1.509,0 3.745,0.491 6.19,5.637l24.862,51.745l-0.572,1.617c-1.924,5.538 -5.565,8.038 -10.142,8.038c-0.833,0 -2.55,0 -3.589,-0.198c4.784,-1.42 6.917,-4.801 6.917,-7.742c0,-4.9 -3.745,-7.399 -9.623,-7.399c-6.241,0 -10.402,2.99 -10.402,7.742c0,7.008 8.634,9.41 14.459,9.41c5.254,0 8.012,-0.981 9.936,-2.402c2.028,-1.52 3.38,-3.822 4.681,-7.253l4.472,-12.102l13.316,-37.341c2.341,-6.517 4.889,-8.82 7.542,-9.752l0,-2.107c-1.613,0.294 -5.618,0.392 -8.166,0.392Z" style="fill:#333;fill-rule:nonzero;"/></svg>