<?xml version="1.0" encoding="UTF-8" standalone="no"?>
<!DOCTYPE svg PUBLIC "-//W3C//DTD SVG 1.1//EN" "http://www.w3.org/Graphics/SVG/1.1/DTD/svg11.dtd">
<svg width="100%" height="100%" viewBox="0 0 954 550" version="1.1" xmlns="http://www.w3.org/2000/svg" xmlns:xlink="http://www.w3.org/1999/xlink" xml:space="preserve" xmlns:serif="http://www.serif.com/" style="fill-rule:evenodd;clip-rule:evenodd;stroke-miterlimit:10;">
    <path d="M236.74,360.11C179.06,340.18 113.11,323.31 59.22,351.95C52.39,355.58 45.66,360.15 41.98,366.95C32.26,384.84 47.71,408.04 40.18,426.95C32.65,445.86 4.31,455.38 6.63,475.58C7.24,480.86 10.1,485.64 13.47,489.76C34.58,515.55 73.28,518.16 105.99,511.76C138.7,505.36 170.69,492.09 203.99,493.76C235.99,495.41 265.43,510.76 294.75,523.68C344.18,545.52 401.91,561.19 451.3,539.24C473.93,529.18 492.64,512.05 514.3,500.09C543.485,484.123 577.048,477.965 610,482.53C632,485.63 653,493.43 674.53,498.81C723.43,511.02 774.47,510.62 824.86,510.14C834.24,510.05 843.77,509.94 852.76,507.26C866.07,503.26 877.05,494.05 887.62,485.04C901.51,473.21 916.14,460.21 920.62,442.52C925.91,421.52 914.96,399.2 898.72,384.93C882.48,370.66 861.72,362.86 841.46,355.34C836.46,353.5 831.12,351.63 826,353.02C822.64,353.94 819.81,356.18 817.3,358.59C802.92,372.43 790.77,395.84 771.16,392.08C764.16,390.74 758.43,385.87 752.89,381.37C723.31,357.37 683.52,338.84 647.82,352.1C621.71,361.8 603.28,386.71 576.82,395.5C558,401.76 537.55,399.05 517.75,400.27C488.95,402.03 460.92,412.21 432.08,411.59C358.54,410.01 297.27,339.69 224.03,346.39C218.29,346.91 212.03,348.23 208.51,352.77" style="fill:white;fill-opacity:0.199125;fill-rule:nonzero;"/>
    <path d="M144,293.22C144,293.22 82.89,330.11 195.58,386.93C195.58,386.93 220.41,340.83 192.96,303.24C181.988,288.154 161.236,283.606 144.96,292.72L144,293.22Z" style="fill:rgb(157,197,191);fill-rule:nonzero;"/>
    <path d="M144.73,292.45C144.73,292.45 197.05,332.45 195.59,386.9" style="fill:none;stroke:rgb(83,84,97);stroke-width:1px;"/>
    <path d="M917.15,262.49C929.53,307.76 876.72,436.73 876.72,436.73C876.72,436.73 765.6,352.6 753.21,307.33C750.854,299.438 749.657,291.246 749.657,283.01C749.657,236.381 788.027,198.01 834.657,198.01C873.564,198.01 907.743,224.724 917.14,262.48L917.15,262.49Z" style="fill:rgb(157,197,191);fill-rule:nonzero;"/>
    <path d="M917.15,262.49C929.53,307.76 876.72,436.73 876.72,436.73C876.72,436.73 765.6,352.6 753.21,307.33C750.854,299.438 749.657,291.246 749.657,283.01C749.657,236.381 788.027,198.01 834.657,198.01C873.564,198.01 907.743,224.724 917.14,262.48L917.15,262.49Z" style="fill-opacity:0.0980392;fill-rule:nonzero;"/>
    <path d="M813.21,203.2C813.21,203.2 882.38,307.62 877.21,436.98" style="fill:none;stroke:rgb(83,84,97);stroke-width:1px;"/>
    <path d="M934.8,345.23C934.8,345.23 872.08,311.11 880.02,437.06C880.02,437.06 932.34,435.19 950.91,392.51C958.389,375.412 951.821,355.196 935.72,345.76L934.8,345.23Z" style="fill:rgb(157,197,191);fill-rule:nonzero;"/>
    <path d="M935.83,345.45C935.83,345.45 927.73,410.83 880.02,437.06" style="fill:none;stroke:rgb(83,84,97);stroke-width:1px;"/>
    <path d="M16.56,331.19C16.56,331.19 -44.58,368.07 68.12,424.86C68.12,424.86 92.95,378.76 65.5,341.17C54.528,326.084 33.776,321.536 17.5,330.65L16.56,331.19Z" style="fill:rgb(157,197,191);fill-rule:nonzero;"/>
    <path d="M17.26,330.42C17.26,330.42 69.58,370.42 68.12,424.87" style="fill:none;stroke:rgb(83,84,97);stroke-width:1px;"/>
    <path d="M779.43,379.2L715.18,379.2C716.658,376.227 717.425,372.95 717.42,369.63L717.42,77.07C717.42,65.27 707.71,55.56 695.91,55.56L198.58,55.56C186.78,55.56 177.07,65.27 177.07,77.07L177.07,369.64C177.065,372.96 177.832,376.237 179.31,379.21L112.79,379.21C109.668,379.21 107.1,381.779 107.1,384.9L107.1,389.52C107.1,406.976 121.464,421.34 138.92,421.34L753.3,421.34C770.756,421.34 785.12,406.976 785.12,389.52L785.12,384.93C785.12,384.917 785.12,384.903 785.12,384.89C785.12,381.769 782.552,379.2 779.43,379.2L779.43,379.2ZM383.54,397.4L378,391.15L514.78,391.15L508.68,397.41L383.54,397.4Z" style="fill:url(#_Linear1);fill-rule:nonzero;"/>
    <path d="M711.28,82.96C711.28,70.122 700.858,59.7 688.02,59.7L206.42,59.7C193.582,59.7 183.16,70.122 183.16,82.96L183.16,364.43C183.16,377.268 193.582,387.69 206.42,387.69L688.02,387.69C700.858,387.69 711.28,377.268 711.28,364.43L711.28,82.96Z" style="fill:rgb(83,84,97);"/>
    <rect x="194.28" y="107.51" width="504.77" height="267.95" style="fill:white;"/>
    <circle cx="446.67" cy="84.16" r="4.45" style="fill:white;"/>
    <path d="M524.6,376.01L507.26,393.8L385,393.8L369.33,376.01L120.34,376.01C117.29,376.01 114.78,378.52 114.78,381.57L114.78,386.05C114.78,403.111 128.819,417.15 145.88,417.15L746.34,417.15C763.401,417.15 777.44,403.111 777.44,386.05L777.44,381.57C777.44,378.52 774.93,376.01 771.88,376.01L524.6,376.01Z" style="fill:rgb(83,84,97);fill-rule:nonzero;"/>
    <rect x="292.12" y="120.857" width="305" height="15.293" style="fill:rgb(157,197,191);fill-opacity:0.498039;"/>
    <rect x="292.12" y="323.41" width="305" height="35.195" style="fill:rgb(157,197,191);fill-opacity:0.498039;"/>
    <rect x="292.12" y="253.27" width="89.953" height="60" style="fill:rgb(157,197,191);fill-opacity:0.698039;"/>
    <rect x="399.62" y="253.83" width="90" height="60" style="fill:rgb(157,197,191);fill-opacity:0.498039;"/>
    <rect x="507.167" y="253.27" width="89.953" height="60" style="fill:rgb(157,197,191);fill-opacity:0.8;"/>
    <rect x="292.12" y="145.713" width="305" height="95.772" style="fill:rgb(157,197,191);"/>
    <path d="M867.31,385.75C863.21,384.4 857.13,382.84 852.31,383.39C847.72,381.72 836.93,377.39 829.56,370.87C829.773,364.459 829.609,358.042 829.07,351.65C825.3,308.78 833.78,280.52 833.78,280.52C833.78,280.52 840.44,258.96 839.71,241.07C840.14,241.88 840.38,242.36 840.38,242.36C840.96,226.93 846.22,210.96 850.16,201.01C850.31,200.967 850.457,200.914 850.6,200.85L855,190.41C855.351,189.801 855.629,189.153 855.83,188.48L856.54,186.83L856.33,186.74C856.4,186.47 856.47,186.18 856.54,185.89C859.35,174 861.54,145.8 861.54,145.8C869.08,116.12 851.18,97.8 851.18,97.8L820.8,71.66C820.951,72 821.052,72.361 821.1,72.73L820.85,72.51C820.42,71.28 819.95,69.81 819.49,68.13C820.562,67.361 821.565,66.501 822.49,65.56C825.944,62.298 828.32,58.058 829.3,53.41C829.889,49.775 830.04,46.081 829.75,42.41L829.25,29.8C829.227,27.332 828.976,24.872 828.5,22.45C826.21,12.45 815.96,5.45 805.67,4.99C802.396,4.971 799.124,5.145 795.87,5.51C793.209,5.729 790.538,5.785 787.87,5.68C787.566,5.696 787.265,5.616 787.01,5.45C786.779,5.219 786.646,4.907 786.64,4.58C786.534,3.398 786.917,2.222 787.7,1.33C788.102,0.977 788.572,0.708 789.08,0.54L788.35,0.71C788.71,0.426 789.116,0.206 789.55,0.06C786.883,0.529 784.318,1.46 781.97,2.81C781.323,3.235 780.729,3.735 780.2,4.3C778.802,5.527 777.893,7.217 777.64,9.06C776.387,8.002 775.452,6.617 774.94,5.06C774.781,4.423 774.781,3.757 774.94,3.12C774.76,3.34 774.587,3.567 774.42,3.8C774.42,3.73 774.42,3.66 774.42,3.59C772.488,5.965 771.12,8.749 770.42,11.73C769.877,11.078 769.617,10.235 769.7,9.39C769.55,9.86 769.41,10.33 769.28,10.8C769.235,10.488 769.235,10.172 769.28,9.86C768.103,13.465 767.571,17.25 767.71,21.04C767.71,24.82 769.39,30.71 773.44,32.04C773.65,32.11 773.86,32.16 774.08,32.21C771.438,36.314 770.033,41.094 770.033,45.975C770.033,58.334 779.043,68.993 791.23,71.05C791.297,71.51 791.36,71.993 791.42,72.5L791.58,72.5C791.69,73.5 791.78,74.6 791.84,75.72C790.818,76.721 789.699,77.619 788.5,78.4C785.1,80.41 781.308,81.665 777.38,82.08C772.69,82.448 768.132,83.812 764.01,86.08C759.16,88.79 753.81,92.74 752.13,97.54C749.33,105.54 733.91,117.99 723.57,119.54L719.89,119.33L719.62,119.25L719.62,119.32L718.72,119.27L718.67,119.27L718.43,119.27L718.43,119.32L717.5,119.27C717.5,119.27 717.41,119.7 717.28,120.46C712.08,118.67 701.03,113.71 686.65,100.66C670.65,86.13 649,88.99 640.65,90.82C639.997,90.964 639.528,91.548 639.528,92.216C639.528,92.738 639.813,93.219 640.27,93.47C643.64,95.32 648.86,98.01 651.27,98.31C651.27,98.31 646.27,103.54 651.59,106.31C652.889,106.938 654.437,106.787 655.59,105.92C658.17,104.03 665.34,108.31 675.73,110.54C675.73,110.54 705.05,140.88 719.61,145.54C719.945,146.203 720.316,146.847 720.72,147.47L721.62,147.4L721.62,147.47L722,147.47L722.11,148.47C722.11,148.47 744.75,147.28 752.11,139.06C752.631,138.593 753.11,138.081 753.54,137.53L745.67,236.53L745.74,236.53L745.67,237.47L751.46,237.47C751.955,249.646 751.43,261.842 749.89,273.93L749.89,338.47C749.89,338.47 749.59,344.15 761.39,352.47C773.762,361.083 785.684,370.326 797.11,380.16L798.54,381.4C796.37,401.15 791.83,437.96 788.04,439.33L790.38,439.74C786.38,444.81 775.02,458.74 771.56,459.11C767.32,459.58 764.49,466.18 771.56,467.59C785.676,470.033 800.193,468.602 813.56,463.45C816.294,462.371 817.953,459.543 817.56,456.63L816.19,446.23C816.449,446.374 816.659,446.594 816.79,446.86C817.73,449.69 816.79,443.09 816.79,443.09C820.664,430.639 823.707,417.944 825.9,405.09L839.9,417.19C839.9,417.19 840.18,416.84 840.67,416.19C844.1,423.97 850.22,439.89 848.85,451.55C846.97,467.55 864.85,453.43 862.98,444.01C861.46,436.39 868.26,404.09 870.91,392.01C871.499,389.321 869.93,386.593 867.31,385.75Z" style="fill:url(#_Linear2);fill-rule:nonzero;"/>
    <path d="M721,124.42C721,124.42 707.66,122.12 687.88,104.18C672.23,89.99 651.12,92.78 642.98,94.57C642.343,94.708 641.884,95.276 641.884,95.929C641.884,96.437 642.163,96.907 642.61,97.15C645.9,98.95 651,101.58 653.39,101.88C653.39,101.88 648.46,106.98 653.7,109.71C654.978,110.337 656.506,110.19 657.64,109.33C660.16,107.49 667.16,111.67 677.31,113.84C677.31,113.84 716.87,154.78 726.07,147.84L721,124.42Z" style="fill:rgb(254,195,190);fill-rule:nonzero;"/>
    <path d="M789.11,68.76C789.11,68.76 792.79,84.4 789.11,95.44L805.67,97.74L820.39,90.38L820.39,80.72C820.39,80.72 813.49,66 815.33,48.98L789.11,68.76Z" style="fill:rgb(254,195,190);fill-rule:nonzero;"/>
    <path d="M836,407.76C836,407.76 848,431.22 846.12,446.86C844.24,462.5 861.76,448.7 859.92,439.5C858.43,432.06 865.07,400.5 867.66,388.76C868.239,386.145 866.724,383.486 864.18,382.65C858.65,380.83 849.39,378.6 844.74,382.01C837.87,387.06 836,407.76 836,407.76Z" style="fill:rgb(139,65,111);fill-rule:nonzero;"/>
    <path d="M790.49,433.52C790.49,433.52 774.85,453.76 770.71,454.22C766.57,454.68 763.81,461.12 770.71,462.5C784.486,464.898 798.657,463.515 811.71,458.5C814.39,457.455 816.02,454.691 815.64,451.84L813,432.14L790.49,433.52Z" style="fill:rgb(139,65,111);fill-rule:nonzero;"/>
    <path d="M764.73,218.71L749.73,220.71C751.789,238.23 751.728,255.934 749.55,273.44L749.55,336.44C749.55,336.44 749.26,341.99 760.78,350.06C772.86,358.458 784.502,367.47 795.66,377.06L837.4,413.22C837.4,413.22 853.96,392.98 851.66,381.02C851.66,381.02 824.06,372.28 820.38,358.02C818.27,349.86 807.57,343.02 798.81,338.72C787.505,333.23 781.501,320.494 784.46,308.28C784.972,306.213 785.762,304.224 786.81,302.37C794.17,289.49 804.75,260.51 804.75,260.51L784.51,221.93L764.73,218.71Z" style="fill:rgb(77,73,129);fill-rule:nonzero;"/>
    <path d="M764.73,218.71L749.73,220.71C751.789,238.23 751.728,255.934 749.55,273.44L749.55,336.44C749.55,336.44 749.26,341.99 760.78,350.06C772.86,358.458 784.502,367.47 795.66,377.06L837.4,413.22C837.4,413.22 853.96,392.98 851.66,381.02C851.66,381.02 824.06,372.28 820.38,358.02C818.27,349.86 807.57,343.02 798.81,338.72C787.505,333.23 781.501,320.494 784.46,308.28C784.972,306.213 785.762,304.224 786.81,302.37C794.17,289.49 804.75,260.51 804.75,260.51L784.51,221.93L764.73,218.71Z" style="fill-opacity:0.0470588;fill-rule:nonzero;"/>
    <path d="M786.81,434.93C786.81,434.93 813.95,439.53 814.87,442.29C815.79,445.05 814.87,438.61 814.87,438.61C814.87,438.61 830.51,391.23 826.87,349.38C823.23,307.53 831.47,279.92 831.47,279.92C831.47,279.92 841.13,248.64 835.61,230.7C830.09,212.76 772.13,220.58 772.13,220.58C772.13,220.58 792.37,267.96 791.91,290.5C791.91,290.5 794.21,358.58 798.35,366.4C798.31,366.36 791.87,433.06 786.81,434.93Z" style="fill:rgb(77,73,129);fill-rule:nonzero;"/>
    <path d="M790,80.72C790,80.72 792.76,97.72 820.36,90.38L802,230.21C802,230.21 748.64,232.05 749.1,225.61L760.1,140.98L790,80.72Z" style="fill:white;fill-rule:nonzero;"/>
    <path d="M790.72,79.8C787.127,83.338 782.443,85.561 777.43,86.11C772.851,86.461 768.398,87.784 764.37,89.99C759.64,92.64 754.37,96.49 752.77,101.18C749.55,110.38 729.31,125.56 720.11,122.34L723.33,149.94C723.33,149.94 749.55,148.56 754.15,138.44L746.34,236.93L753.24,236.93C753.24,236.93 756.92,210.25 759.68,204.73C762.44,199.21 767.96,168.85 768.42,161.49C768.88,154.13 775.78,111.81 781.76,104.49L790.76,82.64L790.72,79.8Z" style="fill-opacity:0.0980392;fill-rule:nonzero;"/>
    <path d="M790.72,81.18C786.609,84.395 781.693,86.419 776.51,87.03C771.933,87.389 767.484,88.718 763.46,90.93C758.73,93.58 753.46,97.43 751.86,102.12C748.64,111.32 728.4,126.5 719.2,123.28L722.42,150.88C722.42,150.88 748.64,149.5 753.24,139.38L745.42,237.81L752.32,237.81C752.32,237.81 756,211.13 758.76,205.61C761.52,200.09 767.04,169.73 767.5,162.37C767.96,155.01 774.86,112.69 780.84,105.37L790.72,83.93L790.72,81.18Z" style="fill-opacity:0.0980392;fill-rule:nonzero;"/>
    <path d="M790.72,80.26C786.609,83.475 781.693,85.499 776.51,86.11C771.931,86.461 767.478,87.784 763.45,89.99C758.72,92.64 753.45,96.49 751.85,101.18C748.63,110.38 728.39,125.56 719.19,122.34L722.41,149.94C722.41,149.94 748.63,148.56 753.23,138.44L745.42,236.93L752.32,236.93C752.32,236.93 756,210.25 758.76,204.73C761.52,199.21 767.04,168.85 767.5,161.49C767.96,154.13 774.86,111.81 780.84,104.49L790.73,83.1L790.72,80.26Z" style="fill:rgb(94,94,94);fill-rule:nonzero;"/>
    <path d="M814.18,62.55C813.58,58.19 814.78,55.47 815.33,50.36L789.11,70.14C789.11,70.14 789.74,72.81 790.22,76.72C791.543,76.934 792.88,77.041 794.22,77.04C803.32,77.04 809.87,69.93 814.18,62.55Z" style="fill-opacity:0.0980392;fill-rule:nonzero;"/>
    <circle cx="794.17" cy="50.83" r="24.84" style="fill:rgb(254,195,190);"/>
    <path d="M767.06,26.48C766.901,22.291 767.581,18.112 769.06,14.19C768.214,15.46 768.437,17.178 769.58,18.19C770.381,13.916 772.576,10.025 775.82,7.13C774.05,7.42 773.14,9.61 773.58,11.35C774.178,13.049 775.242,14.547 776.65,15.67C776.5,13.04 778.24,10.58 780.44,9.14C782.732,7.823 785.236,6.916 787.84,6.46C786.01,7.11 784.838,8.925 785,10.86C785.008,11.181 785.141,11.486 785.37,11.71C785.62,11.87 785.914,11.947 786.21,11.93C788.801,12.03 791.396,11.973 793.98,11.76C797.157,11.402 800.353,11.232 803.55,11.25C813.55,11.67 823.6,18.5 825.84,28.25C826.304,30.616 826.549,33.019 826.57,35.43L827.06,47.74C827.345,51.331 827.197,54.944 826.62,58.5C825.219,65.143 820.921,70.824 814.91,73.98C811.3,68.75 810.98,62.03 809.73,55.8C809.533,54.362 808.998,52.992 808.17,51.8C807.296,50.595 805.746,50.072 804.32,50.5C802.97,51.04 802.39,53.1 803.51,54.02C802.51,55.2 800.64,54.32 799.51,53.27C796.355,50.277 794.182,46.395 793.28,42.14C792.83,40 792.38,37.36 790.28,36.63C789.558,36.431 788.803,36.38 788.06,36.48C783.68,36.78 776.83,38.59 772.59,37.2C768.7,35.93 767.06,30.17 767.06,26.48Z" style="fill-opacity:0.0980392;fill-rule:nonzero;"/>
    <path d="M767.52,26.02C767.361,21.831 768.041,17.652 769.52,13.73C768.674,15 768.897,16.718 770.04,17.73C770.841,13.456 773.036,9.565 776.28,6.67C774.51,6.96 773.6,9.15 774.04,10.89C774.638,12.589 775.702,14.087 777.11,15.21C776.96,12.58 778.7,10.12 780.9,8.68C783.192,7.363 785.696,6.456 788.3,6C786.47,6.65 785.298,8.465 785.46,10.4C785.468,10.721 785.601,11.026 785.83,11.25C786.08,11.41 786.374,11.487 786.67,11.47C789.261,11.57 791.856,11.513 794.44,11.3C797.617,10.942 800.813,10.772 804.01,10.79C814.01,11.21 824.06,18.04 826.3,27.79C826.764,30.156 827.009,32.559 827.03,34.97L827.52,47.28C827.805,50.871 827.657,54.484 827.08,58.04C825.679,64.683 821.381,70.364 815.37,73.52C811.76,68.29 811.44,61.57 810.19,55.34C809.993,53.902 809.458,52.532 808.63,51.34C807.756,50.135 806.206,49.612 804.78,50.04C803.43,50.58 802.85,52.64 803.97,53.56C802.97,54.74 801.1,53.86 799.97,52.81C796.815,49.817 794.642,45.935 793.74,41.68C793.29,39.54 792.84,36.9 790.74,36.17C790.018,35.971 789.263,35.92 788.52,36.02C784.14,36.32 777.29,38.13 773.05,36.74C769.16,35.46 767.52,29.71 767.52,26.02Z" style="fill:rgb(100,66,66);fill-rule:nonzero;"/>
    <path d="M718,122.35C718,122.35 714.32,139.35 721.22,149.95L725.13,149.63L723,122.63L718,122.35Z" style="fill-opacity:0.0980392;fill-rule:nonzero;"/>
    <path d="M719,122.35C719,122.35 715.32,139.35 722.22,149.95L726.13,149.63L724,122.63L719,122.35Z" style="fill:rgb(94,94,94);fill-rule:nonzero;"/>
    <path d="M817.86,75.93L847.53,101.46C847.53,101.46 865.01,119.4 857.65,148.38C857.65,148.38 854.43,190.7 850.75,192.54C850.75,192.54 837.87,218.3 836.95,242.68C836.95,242.68 819.7,207.95 811.88,229.11C804.06,250.27 785.88,253.26 785.88,253.26L796,128.1C796,128.1 821.54,83.71 817.86,75.93Z" style="fill-opacity:0.0980392;fill-rule:nonzero;"/>
    <path d="M818.78,75.93L848.45,101.46C848.45,101.46 865.93,119.4 858.57,148.38C858.57,148.38 855.35,190.7 851.67,192.54C851.67,192.54 838.79,218.3 837.87,242.68C837.87,242.68 819.7,206.11 811.87,227.27C804.04,248.43 786.8,253.27 786.8,253.27L796.92,128.16C796.92,128.16 822.46,83.71 818.78,75.93Z" style="fill:rgb(94,94,94);fill-rule:nonzero;"/>
    <path d="M832.35,183.76C832.35,183.76 839.71,178.7 851.67,192.5L822.23,245.86L812.34,230.93C812.34,230.93 833.27,189.74 832.35,183.76Z" style="fill:rgb(254,195,190);fill-rule:nonzero;"/>
    <path d="M825.22,186.75C825.22,186.75 841.5,205.03 847.85,202.1L853.73,188.41L831.66,178.93L825.22,186.75Z" style="fill-opacity:0.0980392;fill-rule:nonzero;"/>
    <path d="M825.22,185.83C825.22,185.83 841.5,204.11 847.85,201.18L853.73,187.49L831.66,178.01L825.22,185.83Z" style="fill:rgb(94,94,94);fill-rule:nonzero;"/>
    <path d="M813.34,227.44C813.34,227.44 821.09,243.32 825.22,244.24L819.22,251.14L810.48,234.58L813.34,227.44Z" style="fill-opacity:0.0980392;fill-rule:nonzero;"/>
    <path d="M812.88,227.93C812.88,227.93 820.63,243.81 824.76,244.73L818.76,251.63L810,235.04L812.88,227.93Z" style="fill:rgb(77,73,129);fill-rule:nonzero;"/>
    <path d="M827.52,129.71C827.52,129.71 828.44,162.83 824.76,175.25" style="fill-opacity:0.0980392;fill-rule:nonzero;"/>
    <path d="M753,136.15C753,136.15 758.52,134.31 758.52,129.71" style="fill-opacity:0.0980392;fill-rule:nonzero;"/>
    <path d="M82.69,141.69C82.69,141.69 56.47,195.93 73.69,260.12C90.91,324.31 85.44,401.12 68.27,420.12" style="fill:none;stroke:rgb(83,84,97);stroke-width:2px;"/>
    <circle cx="82.69" cy="141.7" r="7.23" style="fill:rgb(157,197,191);"/>
    <path d="M71.79,176.58C71.79,176.58 98.97,181.48 106.2,171.58" style="fill:none;stroke:rgb(83,84,97);stroke-width:2px;"/>
    <path d="M69.21,192.33C69.21,192.33 52.86,174.24 53.76,163.39" style="fill:none;stroke:rgb(83,84,97);stroke-width:2px;"/>
    <path d="M67.82,225.47C67.82,225.47 82.69,229.39 96.26,200.47" style="fill:none;stroke:rgb(83,84,97);stroke-width:2px;"/>
    <path d="M71.79,249.57C71.79,249.57 34.79,225.76 39.3,210.4" style="fill:none;stroke:rgb(83,84,97);stroke-width:2px;"/>
    <path d="M77.57,276.82C77.57,276.82 103.49,253.82 100.78,231.19" style="fill:none;stroke:rgb(83,84,97);stroke-width:2px;"/>
    <path d="M80.39,292.84C80.39,292.84 47.39,283.62 48.39,269.16" style="fill:none;stroke:rgb(83,84,97);stroke-width:2px;"/>
    <path d="M82.69,311.93C82.69,311.93 103.48,292.67 106.19,280.93" style="fill:none;stroke:rgb(83,84,97);stroke-width:2px;"/>
    <path d="M84.14,344.68C84.14,344.68 62.81,319.78 61.9,307.13" style="fill:none;stroke:rgb(83,84,97);stroke-width:2px;"/>
    <path d="M84.14,365.29C84.14,365.29 108.01,338.77 109.81,326.12" style="fill:none;stroke:rgb(83,84,97);stroke-width:2px;"/>
    <circle cx="53.76" cy="165.2" r="7.23" style="fill:rgb(157,197,191);"/>
    <circle cx="45.63" cy="269.16" r="7.23" style="fill:rgb(157,197,191);"/>
    <circle cx="39.3" cy="210.4" r="7.23" style="fill:rgb(157,197,191);"/>
    <circle cx="106.2" cy="171.53" r="7.23" style="fill:rgb(157,197,191);"/>
    <circle cx="106.2" cy="282.72" r="7.23" style="fill:rgb(157,197,191);"/>
    <circle cx="94.45" cy="200.46" r="7.23" style="fill:rgb(157,197,191);"/>
    <circle cx="108.91" cy="330.64" r="7.23" style="fill:rgb(157,197,191);"/>
    <circle cx="60.09" cy="311.65" r="7.23" style="fill:rgb(157,197,191);"/>
    <circle cx="101.68" cy="231.19" r="7.23" style="fill:rgb(157,197,191);"/>
    <defs>
        <linearGradient id="_Linear1" x1="0" y1="0" x2="1" y2="0" gradientUnits="userSpaceOnUse" gradientTransform="matrix(2.23957e-14,-365.75,365.75,2.23957e-14,446.11,421.3)"><stop offset="0" style="stop-color:rgb(128,128,128);stop-opacity:0.247059"/><stop offset="0.54" style="stop-color:rgb(128,128,128);stop-opacity:0.113725"/><stop offset="1" style="stop-color:rgb(128,128,128);stop-opacity:0.0941176"/></linearGradient>
        <linearGradient id="_Linear2" x1="0" y1="0" x2="1" y2="0" gradientUnits="userSpaceOnUse" gradientTransform="matrix(2.86996e-14,-468.7,468.7,2.86996e-14,755.33,468.7)"><stop offset="0" style="stop-color:rgb(128,128,128);stop-opacity:0.247059"/><stop offset="0.54" style="stop-color:rgb(128,128,128);stop-opacity:0.113725"/><stop offset="1" style="stop-color:rgb(128,128,128);stop-opacity:0.0941176"/></linearGradient>
    </defs>
</svg>
