<?xml version="1.0" encoding="UTF-8" standalone="no"?>
<!DOCTYPE svg PUBLIC "-//W3C//DTD SVG 1.1//EN" "http://www.w3.org/Graphics/SVG/1.1/DTD/svg11.dtd">
<svg width="100%" height="100%" viewBox="0 0 918 54" version="1.1" xmlns="http://www.w3.org/2000/svg" xmlns:xlink="http://www.w3.org/1999/xlink" xml:space="preserve" xmlns:serif="http://www.serif.com/" style="fill-rule:evenodd;clip-rule:evenodd;stroke-linejoin:round;stroke-miterlimit:1.41421;">
    <g transform="matrix(-1,0,0,-1,917.372,53.1335)">
        <path d="M925.371,0L-7.999,0L-7.999,36.358C-7.999,36.358 -3.42,37.134 0.008,38.161C21.487,44.591 60.862,45.241 94.142,43.645C127.422,42.05 159.97,38.742 193.852,39.158C226.409,39.569 256.362,43.396 286.194,46.617C336.486,52.062 395.223,55.968 445.474,50.497C468.499,47.988 487.535,43.717 509.573,40.737C539.267,36.756 573.415,35.22 606.942,36.358C629.326,37.131 650.692,39.076 672.597,40.417C722.35,43.461 774.28,43.361 825.549,43.242C835.093,43.219 844.789,43.192 853.936,42.524C867.478,41.526 878.649,39.23 889.404,36.984C903.536,34.035 925.371,26.567 925.371,26.567L925.371,0Z" style="fill:white;fill-rule:nonzero;"/>
    </g>
</svg>
