<?xml version="1.0" encoding="UTF-8" standalone="no"?>
<!DOCTYPE svg PUBLIC "-//W3C//DTD SVG 1.1//EN" "http://www.w3.org/Graphics/SVG/1.1/DTD/svg11.dtd">
<svg width="100%" height="100%" viewBox="0 0 1182 316" version="1.1" xmlns="http://www.w3.org/2000/svg" xmlns:xlink="http://www.w3.org/1999/xlink" xml:space="preserve" xmlns:serif="http://www.serif.com/" style="fill-rule:evenodd;clip-rule:evenodd;stroke-linejoin:round;stroke-miterlimit:1.41421;">
    <g transform="matrix(1,0,0,1,-649.494,-2090.29)">
        <g transform="matrix(1.00438,0,0,1,-787.763,954.5)">
            <g transform="matrix(0.536986,0,0,0.536986,1372.78,549.943)">
                <path d="M232.553,1591.25L257.455,1591.25C267.416,1591.25 274.692,1588.63 279.282,1583.39C283.871,1578.15 286.166,1569.35 286.166,1556.98C286.166,1544.15 284.05,1535.38 279.819,1530.66C275.587,1525.94 268.198,1523.58 257.651,1523.58L232.553,1523.58L232.553,1591.25ZM221.615,1677.09L221.615,1515.18L259.604,1515.18C266.7,1515.18 272.755,1516.2 277.768,1518.25C282.781,1520.31 286.671,1523.27 289.438,1527.14C292.205,1531.02 294.207,1535.38 295.444,1540.23C296.681,1545.08 297.299,1550.66 297.299,1556.98C297.299,1561.47 296.941,1565.7 296.225,1569.67C295.509,1573.64 294.239,1577.5 292.416,1581.24C290.593,1584.99 288.298,1588.21 285.532,1590.91C282.765,1593.61 279.2,1595.76 274.838,1597.36C270.476,1598.95 265.496,1599.75 259.897,1599.75L232.553,1599.75L232.553,1677.09L221.615,1677.09Z" style="fill:rgb(0,47,70);fill-rule:nonzero;"/>
                <path d="M408.588,1677.09L408.588,1515.18L419.526,1515.18L419.526,1588.13L476.264,1588.13L476.264,1515.18L487.201,1515.18L487.201,1677.09L476.264,1677.09L476.264,1596.43L419.526,1596.43L419.526,1677.09L408.588,1677.09Z" style="fill:rgb(0,47,70);fill-rule:nonzero;"/>
                <path d="M659.819,1676.9C655.196,1678.46 649.793,1679.24 643.608,1679.24C637.423,1679.24 631.987,1678.44 627.299,1676.85C622.612,1675.25 618.787,1673.07 615.824,1670.31C612.862,1667.54 610.453,1664.07 608.598,1659.9C606.742,1655.74 605.44,1651.33 604.692,1646.67C603.943,1642.02 603.569,1636.79 603.569,1631L603.569,1560.3C603.569,1554.57 603.959,1549.41 604.74,1544.82C605.522,1540.23 606.873,1535.93 608.793,1531.93C610.714,1527.92 613.188,1524.59 616.215,1521.92C619.242,1519.25 623.051,1517.15 627.641,1515.62C632.231,1514.09 637.553,1513.32 643.608,1513.32C651.095,1513.32 657.475,1514.46 662.748,1516.74C668.022,1519.02 672.156,1522.31 675.151,1526.6C678.145,1530.9 680.31,1535.8 681.645,1541.3C682.979,1546.8 683.647,1553.13 683.647,1560.3L683.647,1631.29C683.647,1637.09 683.272,1642.29 682.524,1646.92C681.775,1651.54 680.473,1655.92 678.617,1660.05C676.762,1664.18 674.337,1667.62 671.342,1670.35C668.347,1673.09 664.506,1675.27 659.819,1676.9ZM629.252,1667.72C633.158,1669.41 637.944,1670.26 643.608,1670.26C649.272,1670.26 654.041,1669.39 657.914,1667.67C661.788,1665.94 664.767,1663.39 666.85,1660C668.933,1656.62 670.414,1652.81 671.293,1648.58C672.172,1644.35 672.612,1639.3 672.612,1633.44L672.612,1558.73C672.612,1552.87 672.188,1547.84 671.342,1543.64C670.496,1539.45 669.015,1535.67 666.899,1532.32C664.783,1528.96 661.788,1526.44 657.914,1524.75C654.041,1523.06 649.272,1522.21 643.608,1522.21C637.944,1522.21 633.175,1523.06 629.301,1524.75C625.427,1526.44 622.433,1528.96 620.317,1532.32C618.201,1535.67 616.72,1539.45 615.873,1543.64C615.027,1547.84 614.604,1552.87 614.604,1558.73L614.604,1633.44C614.604,1639.3 615.027,1644.35 615.873,1648.58C616.72,1652.81 618.201,1656.62 620.317,1660C622.433,1663.39 625.411,1665.96 629.252,1667.72Z" style="fill:rgb(0,47,70);fill-rule:nonzero;"/>
                <path d="M818.08,1677.09L818.08,1523.87L783.803,1523.87L783.803,1515.18L862.612,1515.18L862.612,1523.87L829.018,1523.87L829.018,1677.09L818.08,1677.09Z" style="fill:rgb(0,47,70);fill-rule:nonzero;"/>
                <path d="M1019.02,1676.9C1014.39,1678.46 1008.99,1679.24 1002.81,1679.24C996.622,1679.24 991.186,1678.44 986.498,1676.85C981.811,1675.25 977.986,1673.07 975.024,1670.31C972.061,1667.54 969.653,1664.07 967.797,1659.9C965.942,1655.74 964.64,1651.33 963.891,1646.67C963.142,1642.02 962.768,1636.79 962.768,1631L962.768,1560.3C962.768,1554.57 963.158,1549.41 963.94,1544.82C964.721,1540.23 966.072,1535.93 967.992,1531.93C969.913,1527.92 972.387,1524.59 975.414,1521.92C978.442,1519.25 982.25,1517.15 986.84,1515.62C991.43,1514.09 996.752,1513.32 1002.81,1513.32C1010.29,1513.32 1016.67,1514.46 1021.95,1516.74C1027.22,1519.02 1031.36,1522.31 1034.35,1526.6C1037.35,1530.9 1039.51,1535.8 1040.84,1541.3C1042.18,1546.8 1042.85,1553.13 1042.85,1560.3L1042.85,1631.29C1042.85,1637.09 1042.47,1642.29 1041.72,1646.92C1040.97,1651.54 1039.67,1655.92 1037.82,1660.05C1035.96,1664.18 1033.54,1667.62 1030.54,1670.35C1027.55,1673.09 1023.71,1675.27 1019.02,1676.9ZM988.451,1667.72C992.358,1669.41 997.143,1670.26 1002.81,1670.26C1008.47,1670.26 1013.24,1669.39 1017.11,1667.67C1020.99,1665.94 1023.97,1663.39 1026.05,1660C1028.13,1656.62 1029.61,1652.81 1030.49,1648.58C1031.37,1644.35 1031.81,1639.3 1031.81,1633.44L1031.81,1558.73C1031.81,1552.87 1031.39,1547.84 1030.54,1543.64C1029.69,1539.45 1028.21,1535.67 1026.1,1532.32C1023.98,1528.96 1020.99,1526.44 1017.11,1524.75C1013.24,1523.06 1008.47,1522.21 1002.81,1522.21C997.143,1522.21 992.374,1523.06 988.5,1524.75C984.627,1526.44 981.632,1528.96 979.516,1532.32C977.4,1535.67 975.919,1539.45 975.073,1543.64C974.226,1547.84 973.803,1552.87 973.803,1558.73L973.803,1633.44C973.803,1639.3 974.226,1644.35 975.073,1648.58C975.919,1652.81 977.4,1656.62 979.516,1660C981.632,1663.39 984.61,1665.96 988.451,1667.72Z" style="fill:rgb(0,47,70);fill-rule:nonzero;"/>
                <path d="M1194.86,1679.34C1188.8,1679.34 1183.5,1678.53 1178.94,1676.9C1174.38,1675.27 1170.65,1673.06 1167.76,1670.26C1164.86,1667.46 1162.52,1663.94 1160.73,1659.71C1158.94,1655.48 1157.68,1650.99 1156.97,1646.23C1156.25,1641.48 1155.89,1636.11 1155.89,1630.12L1155.89,1561.37C1155.89,1555.38 1156.25,1550.04 1156.97,1545.35C1157.68,1540.67 1158.97,1536.27 1160.82,1532.17C1162.68,1528.07 1165.07,1524.67 1168,1521.96C1170.93,1519.26 1174.69,1517.15 1179.28,1515.62C1183.87,1514.09 1189.23,1513.32 1195.35,1513.32C1208.82,1513.32 1218.42,1517.26 1224.15,1525.14C1229.88,1533.02 1232.75,1544.48 1232.75,1559.51L1232.75,1565.18L1222.4,1565.18L1222.4,1558.83C1222.4,1546.33 1220.43,1537.1 1216.49,1531.14C1212.55,1525.19 1205.54,1522.21 1195.44,1522.21C1190.76,1522.21 1186.72,1522.84 1183.33,1524.11C1179.95,1525.38 1177.21,1527.09 1175.13,1529.24C1173.05,1531.39 1171.39,1534.16 1170.15,1537.54C1168.91,1540.93 1168.07,1544.46 1167.61,1548.14C1167.16,1551.82 1166.93,1556.1 1166.93,1560.98L1166.93,1631.49C1166.93,1637.74 1167.35,1643.11 1168.2,1647.6C1169.04,1652.09 1170.51,1656.11 1172.59,1659.66C1174.67,1663.21 1177.62,1665.86 1181.43,1667.62C1185.24,1669.38 1189.98,1670.26 1195.64,1670.26C1200.85,1670.26 1205.26,1669.41 1208.87,1667.72C1212.49,1666.03 1215.28,1663.45 1217.27,1660C1219.26,1656.55 1220.67,1652.6 1221.52,1648.14C1222.36,1643.68 1222.79,1638.36 1222.79,1632.17L1222.79,1608.34L1197.01,1608.34L1197.01,1599.94L1233.04,1599.94L1233.04,1677.09L1226.01,1677.09L1224.35,1658.93C1220.12,1672.54 1210.29,1679.34 1194.86,1679.34Z" style="fill:rgb(0,47,70);fill-rule:nonzero;"/>
                <path d="M1362.3,1587.15L1390.13,1587.15C1395.21,1587.15 1399.44,1586.43 1402.83,1585C1406.21,1583.57 1408.82,1581.39 1410.64,1578.46C1412.46,1575.53 1413.73,1572.23 1414.45,1568.55C1415.16,1564.87 1415.52,1560.36 1415.52,1555.02C1415.52,1544.15 1413.7,1536.22 1410.05,1531.24C1406.41,1526.26 1399.73,1523.77 1390.03,1523.77L1362.3,1523.77L1362.3,1587.15ZM1351.36,1677.09L1351.36,1515.18L1390.72,1515.18C1396.32,1515.18 1401.21,1515.86 1405.41,1517.23C1409.61,1518.6 1413.02,1520.43 1415.62,1522.75C1418.22,1525.06 1420.34,1527.95 1421.97,1531.44C1423.6,1534.92 1424.72,1538.55 1425.34,1542.33C1425.95,1546.1 1426.26,1550.33 1426.26,1555.02C1426.26,1558.93 1426.07,1562.51 1425.68,1565.76C1425.29,1569.02 1424.56,1572.26 1423.48,1575.48C1422.41,1578.7 1421.01,1581.49 1419.28,1583.83C1417.56,1586.17 1415.25,1588.21 1412.35,1589.93C1409.45,1591.66 1406.11,1592.82 1402.34,1593.4L1428.51,1677.09L1417.67,1677.09L1392.38,1595.45L1362.3,1595.45L1362.3,1677.09L1351.36,1677.09Z" style="fill:rgb(0,47,70);fill-rule:nonzero;"/>
                <path d="M1555.52,1624.26L1594.39,1624.26L1574.86,1528.36L1555.52,1624.26ZM1534.53,1677.09L1568.51,1515.18L1581.01,1515.18L1615.29,1677.09L1604.35,1677.09L1595.95,1632.37L1553.96,1632.37L1545.27,1677.09L1534.53,1677.09Z" style="fill:rgb(0,47,70);fill-rule:nonzero;"/>
                <path d="M1737.61,1591.25L1762.51,1591.25C1772.48,1591.25 1779.75,1588.63 1784.34,1583.39C1788.93,1578.15 1791.23,1569.35 1791.23,1556.98C1791.23,1544.15 1789.11,1535.38 1784.88,1530.66C1780.64,1525.94 1773.26,1523.58 1762.71,1523.58L1737.61,1523.58L1737.61,1591.25ZM1726.67,1677.09L1726.67,1515.18L1764.66,1515.18C1771.76,1515.18 1777.81,1516.2 1782.83,1518.25C1787.84,1520.31 1791.73,1523.27 1794.5,1527.14C1797.26,1531.02 1799.27,1535.38 1800.5,1540.23C1801.74,1545.08 1802.36,1550.66 1802.36,1556.98C1802.36,1561.47 1802,1565.7 1801.28,1569.67C1800.57,1573.64 1799.3,1577.5 1797.48,1581.24C1795.65,1584.99 1793.36,1588.21 1790.59,1590.91C1787.82,1593.61 1784.26,1595.76 1779.9,1597.36C1775.54,1598.95 1770.55,1599.75 1764.95,1599.75L1737.61,1599.75L1737.61,1677.09L1726.67,1677.09Z" style="fill:rgb(0,47,70);fill-rule:nonzero;"/>
                <path d="M1913.65,1677.09L1913.65,1515.18L1924.58,1515.18L1924.58,1588.13L1981.32,1588.13L1981.32,1515.18L1992.26,1515.18L1992.26,1677.09L1981.32,1677.09L1981.32,1596.43L1924.58,1596.43L1924.58,1677.09L1913.65,1677.09Z" style="fill:rgb(0,47,70);fill-rule:nonzero;"/>
                <path d="M2138.51,1677.09L2138.51,1625.33L2101.11,1515.18L2112.34,1515.18L2144.08,1612.35L2174.35,1515.18L2185.48,1515.18L2149.35,1625.33L2149.35,1677.09L2138.51,1677.09Z" style="fill:rgb(0,47,70);fill-rule:nonzero;"/>
            </g>
        </g>
        <g transform="matrix(1.00438,0,0,1,-787.763,954.5)">
            <g transform="matrix(0.461205,0,0,0.461205,1490.31,587.778)">
                <path d="M13.364,1193.89C-3.042,1194.67 -30.972,1195.06 -57.339,1195.06C-86.245,1195.06 -113.394,1194.67 -128.628,1193.89L-128.628,1201.9C-104.605,1203.07 -100.112,1207.17 -100.112,1236.27L-100.112,1434.71C-100.112,1463.81 -104.214,1467.91 -128.628,1469.08L-128.628,1477.09C-82.144,1475.92 -17.3,1475.92 11.411,1475.92C38.169,1475.92 75.864,1475.92 103.013,1477.09C100.278,1449.16 100.278,1419.87 100.278,1405.8C100.278,1391.55 100.669,1378.65 101.45,1369.08L92.27,1369.08C83.091,1420.65 42.661,1467.91 14.731,1467.91L1.45,1467.91C-15.737,1467.91 -19.058,1464.79 -19.058,1442.72L-19.058,1236.27C-19.058,1207.17 -13.784,1203.07 13.364,1201.9L13.364,1193.89Z" style="fill:rgb(0,47,70);fill-rule:nonzero;"/>
                <path d="M239.419,1263.81C211.489,1263.81 191.763,1268.3 175.356,1276.7C161.099,1284.32 150.552,1296.62 150.552,1313.42C150.552,1333.15 163.442,1348.38 183.364,1348.38C206.606,1348.38 221.841,1333.54 221.841,1314.79C221.841,1296.62 212.27,1285.1 195.083,1278.65C200.942,1274.75 209.341,1271.82 216.177,1271.82C241.763,1271.82 245.864,1292.33 245.864,1304.63L245.864,1340.37C245.864,1358.34 221.45,1366.35 190.2,1377.48C155.044,1389.01 139.419,1406.78 139.419,1433.93C139.419,1461.47 157.778,1479.83 189.81,1479.83C214.614,1479.83 235.903,1467.91 247.036,1449.55C247.427,1465.57 258.169,1479.83 288.247,1479.83C311.099,1479.83 327.505,1475.92 340.2,1465.18L336.294,1458.34C332.583,1461.08 328.677,1464.2 323.794,1464.2C319.497,1464.2 317.739,1459.9 317.739,1447.01L317.739,1339.98C317.739,1312.25 315.786,1295.45 304.653,1283.93C289.419,1267.91 267.349,1263.81 239.419,1263.81ZM245.864,1441.15C240.981,1446.23 236.685,1447.8 231.02,1447.8C219.497,1447.8 210.708,1440.37 210.708,1419.48C210.708,1399.94 218.325,1385.88 230.239,1374.36C235.903,1368.69 242.544,1362.25 245.864,1356.78L245.864,1441.15Z" style="fill:rgb(0,47,70);fill-rule:nonzero;"/>
                <path d="M582.075,1265.18C562.153,1269.08 539.302,1270.65 512.544,1270.65C504.536,1270.65 496.138,1270.26 487.739,1269.48L487.739,1277.87C504.536,1277.87 510.2,1289.01 510.2,1313.03L510.2,1433.15C510.2,1449.94 496.138,1461.86 481.294,1461.86C467.427,1461.86 461.763,1453.46 461.763,1436.66L461.763,1265.18C441.645,1269.08 418.989,1270.65 392.231,1270.65C384.224,1270.65 375.825,1270.26 367.427,1269.48L367.427,1277.87C384.224,1277.87 389.692,1289.01 389.692,1313.03L389.692,1415.18C389.692,1442.33 393.403,1457.17 401.411,1466.74C409.028,1475.92 422.114,1482.76 446.528,1482.76C475.239,1482.76 497.31,1473.97 510.2,1452.68L510.2,1481.58C530.122,1477.48 552.974,1475.92 579.731,1475.92C587.739,1475.92 596.138,1476.31 604.536,1477.09L604.536,1468.69C587.739,1468.69 582.075,1457.56 582.075,1433.54L582.075,1265.18Z" style="fill:rgb(0,47,70);fill-rule:nonzero;"/>
                <path d="M786.255,1263.81C763.013,1263.81 745.044,1273.58 734.497,1293.89L734.497,1265.18C714.575,1269.08 691.724,1270.65 664.966,1270.65C656.958,1270.65 648.56,1270.26 640.161,1269.48L640.161,1277.87C656.958,1277.87 662.622,1289.01 662.622,1313.03L662.622,1439.98C662.622,1462.25 656.567,1468.69 640.161,1468.69L640.161,1477.09C652.466,1476.7 680.2,1475.53 704.224,1475.53C729.81,1475.53 756.567,1476.7 768.872,1477.09L768.872,1468.69C744.653,1468.69 734.497,1461.47 734.497,1435.88L734.497,1315.96C734.497,1299.94 745.044,1285.88 758.13,1280.22C762.231,1278.26 766.528,1277.48 771.02,1277.48C758.911,1285.49 750.513,1296.62 750.513,1314.79C750.513,1331.98 762.622,1343.5 786.255,1343.5C808.13,1343.5 822.974,1328.26 822.974,1304.24C822.974,1285.88 814.966,1263.81 786.255,1263.81Z" style="fill:rgb(0,47,70);fill-rule:nonzero;"/>
                <path d="M977.349,1439.01C955.669,1439.01 931.255,1424.36 931.255,1367.91C931.255,1363.03 931.255,1358.15 931.645,1353.46L1034.97,1353.46C1034.97,1289.01 1006.06,1263.81 959.38,1263.81C901.372,1263.81 856.45,1296.62 856.45,1373.58C856.45,1454.24 897.661,1482.76 949.028,1482.76C996.489,1482.76 1022.47,1447.01 1032.62,1414.79L1025.79,1412.25C1008.21,1436.66 988.091,1439.01 977.349,1439.01ZM956.45,1273.19C971.294,1273.19 976.958,1306.78 976.567,1345.84L930.278,1345.84C933.013,1292.91 942.388,1273.19 956.45,1273.19Z" style="fill:rgb(0,47,70);fill-rule:nonzero;"/>
                <path d="M1231.72,1263.81C1203.01,1263.81 1180.94,1272.6 1168.05,1293.89L1168.05,1265.18C1148.13,1269.08 1125.28,1270.65 1098.52,1270.65C1090.51,1270.65 1082.11,1270.26 1073.72,1269.48L1073.72,1277.87C1090.51,1277.87 1096.18,1289.01 1096.18,1313.03L1096.18,1439.98C1096.18,1462.25 1090.12,1468.69 1073.72,1468.69L1073.72,1477.09C1085.24,1476.7 1111.41,1475.53 1133.68,1475.53C1154.58,1475.53 1176.45,1476.7 1186.61,1477.09L1186.61,1468.69C1172.93,1468.69 1168.05,1462.25 1168.05,1439.98L1168.05,1313.42C1168.05,1296.62 1182.11,1284.71 1196.96,1284.71C1210.83,1284.71 1216.49,1293.11 1216.49,1309.9L1216.49,1439.98C1216.49,1462.25 1211.8,1468.69 1198.13,1468.69L1198.13,1477.09C1208.87,1476.7 1232.51,1475.53 1254.97,1475.53C1275.67,1475.53 1300.08,1476.7 1310.83,1477.09L1310.83,1468.69C1294.61,1468.69 1288.56,1462.25 1288.56,1439.98L1288.56,1331.58C1288.56,1304.24 1284.85,1289.4 1276.84,1279.83C1269.22,1270.65 1256.14,1263.81 1231.72,1263.81Z" style="fill:rgb(0,47,70);fill-rule:nonzero;"/>
                <path d="M1614.11,1188.23C1522.89,1188.23 1459.03,1248.38 1459.03,1337.83C1459.03,1429.05 1509.03,1482.76 1609.42,1482.76C1632.27,1482.76 1656.1,1473.58 1677,1463.42C1693.4,1455.41 1699.85,1454.24 1704.14,1454.24C1712.54,1454.24 1716.26,1467.91 1716.64,1477.09L1724.65,1477.09L1724.65,1397.8C1724.65,1368.3 1727.39,1364.79 1741.06,1363.42L1741.06,1355.41C1727.39,1356.39 1704.93,1356.78 1679.34,1356.78C1655.32,1356.78 1620.94,1356.39 1602.97,1355.41L1602.97,1363.42C1636.57,1364.79 1643.4,1371.04 1643.4,1409.9L1643.4,1449.94C1643.4,1459.51 1640.67,1465.96 1635.01,1469.87C1630.12,1473.19 1623.87,1474.75 1615.28,1474.75C1576.61,1474.75 1551.02,1432.37 1551.02,1336.27C1551.02,1276.31 1568.6,1200.73 1630.12,1200.73C1644.18,1200.73 1660.2,1205.02 1671.33,1212.64C1697.7,1230.61 1704.54,1255.41 1708.25,1293.89L1717.43,1293.89C1717.43,1243.5 1717.82,1215.18 1718.99,1193.89L1709.81,1193.89C1708.25,1210.3 1705.32,1217.91 1699.85,1217.91C1697.31,1217.91 1694.58,1216.74 1691.84,1214.2C1673.87,1199.94 1651.41,1188.23 1614.11,1188.23Z" style="fill:rgb(0,47,70);fill-rule:nonzero;"/>
                <path d="M1921.41,1263.81C1898.17,1263.81 1880.2,1273.58 1869.65,1293.89L1869.65,1265.18C1849.73,1269.08 1826.88,1270.65 1800.12,1270.65C1792.11,1270.65 1783.72,1270.26 1775.32,1269.48L1775.32,1277.87C1792.11,1277.87 1797.78,1289.01 1797.78,1313.03L1797.78,1439.98C1797.78,1462.25 1791.72,1468.69 1775.32,1468.69L1775.32,1477.09C1787.62,1476.7 1815.36,1475.53 1839.38,1475.53C1864.97,1475.53 1891.72,1476.7 1904.03,1477.09L1904.03,1468.69C1879.81,1468.69 1869.65,1461.47 1869.65,1435.88L1869.65,1315.96C1869.65,1299.94 1880.2,1285.88 1893.29,1280.22C1897.39,1278.26 1901.68,1277.48 1906.18,1277.48C1894.07,1285.49 1885.67,1296.62 1885.67,1314.79C1885.67,1331.98 1897.78,1343.5 1921.41,1343.5C1943.29,1343.5 1958.13,1328.26 1958.13,1304.24C1958.13,1285.88 1950.12,1263.81 1921.41,1263.81Z" style="fill:rgb(0,47,70);fill-rule:nonzero;"/>
                <path d="M2088.09,1263.81C2060.16,1263.81 2040.43,1268.3 2024.03,1276.7C2009.77,1284.32 1999.22,1296.62 1999.22,1313.42C1999.22,1333.15 2012.11,1348.38 2032.04,1348.38C2055.28,1348.38 2070.51,1333.54 2070.51,1314.79C2070.51,1296.62 2060.94,1285.1 2043.76,1278.65C2049.61,1274.75 2058.01,1271.82 2064.85,1271.82C2090.43,1271.82 2094.54,1292.33 2094.54,1304.63L2094.54,1340.37C2094.54,1358.34 2070.12,1366.35 2038.87,1377.48C2003.72,1389.01 1988.09,1406.78 1988.09,1433.93C1988.09,1461.47 2006.45,1479.83 2038.48,1479.83C2063.29,1479.83 2084.57,1467.91 2095.71,1449.55C2096.1,1465.57 2106.84,1479.83 2136.92,1479.83C2159.77,1479.83 2176.18,1475.92 2188.87,1465.18L2184.97,1458.34C2181.26,1461.08 2177.35,1464.2 2172.47,1464.2C2168.17,1464.2 2166.41,1459.9 2166.41,1447.01L2166.41,1339.98C2166.41,1312.25 2164.46,1295.45 2153.32,1283.93C2138.09,1267.91 2116.02,1263.81 2088.09,1263.81ZM2094.54,1441.15C2089.65,1446.23 2085.36,1447.8 2079.69,1447.8C2068.17,1447.8 2059.38,1440.37 2059.38,1419.48C2059.38,1399.94 2067,1385.88 2078.91,1374.36C2084.57,1368.69 2091.22,1362.25 2094.54,1356.78L2094.54,1441.15Z" style="fill:rgb(0,47,70);fill-rule:nonzero;"/>
                <path d="M2390.9,1271.04C2381.14,1271.04 2360.04,1270.65 2348.72,1269.48L2348.72,1277.87C2365.32,1279.05 2378.01,1291.94 2378.01,1318.11C2378.01,1329.24 2375.86,1342.91 2370.39,1359.12L2353.79,1410.3L2304.38,1293.11C2303.21,1290.57 2302.82,1288.62 2302.82,1286.86C2302.82,1278.07 2314.73,1277.87 2326.84,1277.87L2326.84,1269.48C2310.83,1270.65 2293.64,1271.82 2268.83,1271.82C2248.72,1271.82 2224.89,1271.04 2203.6,1269.48L2203.6,1277.87C2209.26,1277.87 2217.66,1279.83 2226.84,1300.33L2320.2,1506.58L2318.05,1513.03C2310.83,1535.1 2297.15,1545.06 2279.97,1545.06C2276.84,1545.06 2270.39,1545.06 2266.49,1544.28C2284.46,1538.62 2292.47,1525.14 2292.47,1513.42C2292.47,1493.89 2278.4,1483.93 2256.33,1483.93C2232.89,1483.93 2217.27,1495.84 2217.27,1514.79C2217.27,1542.72 2249.69,1552.29 2271.57,1552.29C2291.29,1552.29 2301.64,1548.38 2308.87,1542.72C2316.49,1536.66 2321.57,1527.48 2326.45,1513.81L2343.25,1465.57L2393.25,1316.74C2402.04,1290.76 2411.61,1281.58 2421.57,1277.87L2421.57,1269.48C2415.51,1270.65 2400.47,1271.04 2390.9,1271.04Z" style="fill:rgb(0,47,70);fill-rule:nonzero;"/>
            </g>
        </g>
    </g>
</svg>
