<?xml version="1.0" encoding="UTF-8" standalone="no"?><!DOCTYPE svg PUBLIC "-//W3C//DTD SVG 1.1//EN" "http://www.w3.org/Graphics/SVG/1.1/DTD/svg11.dtd"><svg width="100%" height="100%" viewBox="0 0 186 98" version="1.1" xmlns="http://www.w3.org/2000/svg" xmlns:xlink="http://www.w3.org/1999/xlink" xml:space="preserve" xmlns:serif="http://www.serif.com/" style="fill-rule:evenodd;clip-rule:evenodd;stroke-linejoin:round;stroke-miterlimit:1.41421;"><path d="M6.511,97.3c-1.211,0 -2.244,-0.167 -3.098,-0.503c-0.855,-0.336 -1.528,-0.83 -2.021,-1.484c-0.492,-0.654 -0.847,-1.408 -1.065,-2.262c-0.218,-0.854 -0.327,-1.857 -0.327,-3.007l0,-7.727c0,-1.177 0.109,-2.199 0.327,-3.066c0.218,-0.868 0.573,-1.626 1.065,-2.275c0.493,-0.65 1.164,-1.138 2.014,-1.465c0.85,-0.327 1.885,-0.49 3.105,-0.49c1.168,0 2.164,0.148 2.988,0.445c0.824,0.296 1.469,0.732 1.935,1.307c0.466,0.575 0.802,1.229 1.007,1.961c0.204,0.732 0.307,1.582 0.307,2.55l0,1.909l-4.681,0l0,-2.184c0,-0.34 -0.004,-0.597 -0.013,-0.771c-0.009,-0.175 -0.039,-0.399 -0.091,-0.674c-0.053,-0.274 -0.129,-0.481 -0.229,-0.621c-0.101,-0.139 -0.255,-0.263 -0.464,-0.372c-0.21,-0.109 -0.462,-0.164 -0.759,-0.164c-0.296,0 -0.549,0.055 -0.758,0.164c-0.209,0.109 -0.368,0.239 -0.477,0.392c-0.109,0.153 -0.196,0.362 -0.262,0.628c-0.065,0.265 -0.104,0.507 -0.117,0.725c-0.014,0.218 -0.02,0.488 -0.02,0.811l0,10.107c0,0.871 0.113,1.536 0.34,1.994c0.226,0.457 0.658,0.686 1.294,0.686c0.288,0 0.534,-0.054 0.739,-0.163c0.205,-0.109 0.36,-0.238 0.464,-0.386c0.105,-0.148 0.185,-0.357 0.242,-0.628c0.057,-0.27 0.089,-0.505 0.098,-0.706c0.009,-0.2 0.013,-0.466 0.013,-0.797l0,-2.275l4.681,0l0,1.869c0,0.776 -0.061,1.478 -0.183,2.105c-0.122,0.628 -0.329,1.219 -0.621,1.772c-0.292,0.554 -0.671,1.018 -1.138,1.393c-0.466,0.374 -1.061,0.669 -1.784,0.882c-0.724,0.214 -1.561,0.32 -2.511,0.32Z" style="fill:#9dc5bf;fill-rule:nonzero;"/><path d="M32.185,84.539l1.229,0c0.976,0 1.665,-0.252 2.066,-0.758c0.401,-0.505 0.601,-1.268 0.601,-2.288c0,-1.002 -0.181,-1.745 -0.542,-2.229c-0.362,-0.484 -0.988,-0.726 -1.877,-0.726l-1.477,0l0,6.001Zm-4.786,12.461l0,-21.678l5.91,0c0.916,0 1.726,0.052 2.432,0.157c0.706,0.104 1.369,0.287 1.988,0.549c0.618,0.261 1.128,0.606 1.529,1.033c0.401,0.427 0.715,0.976 0.942,1.647c0.226,0.671 0.34,1.456 0.34,2.354c0,1.42 -0.192,2.562 -0.576,3.425c-0.383,0.863 -1.076,1.534 -2.079,2.014l2.982,10.499l-4.956,0l-2.379,-9.702l-1.347,0l0,9.702l-4.786,0Z" style="fill:#9dc5bf;fill-rule:nonzero;"/><path d="M55.453,97l0,-21.678l9.74,0l0,3.268l-4.955,0l0,5.361l3.779,0l0,3.334l-3.779,0l0,6.472l5.008,0l0,3.243l-9.793,0Z" style="fill:#9dc5bf;fill-rule:nonzero;"/><path d="M84.12,89.534l2.315,0l-1.164,-8.394l-1.151,8.394Zm-5.687,7.466l4.105,-21.678l5.413,0l4.08,21.678l-4.42,0l-0.745,-4.603l-3.164,0l-0.732,4.603l-4.537,0Z" style="fill:#9dc5bf;fill-rule:nonzero;"/><path d="M107.702,97l0,-18.135l-3.334,0l0,-3.543l11.427,0l0,3.543l-3.294,0l0,18.135l-4.799,0Z" style="fill:#9dc5bf;fill-rule:nonzero;"/><rect x="129.741" y="75.322" width="4.785" height="21.678" style="fill:#9dc5bf;fill-rule:nonzero;"/><path d="M152.721,97l-3.922,-21.678l4.092,0l2.327,14.617l2.158,-14.617l4.354,0l-3.975,21.678l-5.034,0Z" style="fill:#9dc5bf;fill-rule:nonzero;"/><path d="M175.937,97l0,-21.678l9.74,0l0,3.268l-4.955,0l0,5.361l3.779,0l0,3.334l-3.779,0l0,6.472l5.008,0l0,3.243l-9.793,0Z" style="fill:#9dc5bf;fill-rule:nonzero;"/><path d="M34.366,0c-16.358,0 -27.811,10.788 -27.811,26.831c0,16.357 8.967,25.99 26.97,25.99c4.099,0 8.372,-1.646 12.12,-3.468c2.942,-1.436 4.098,-1.646 4.869,-1.646c1.506,0 2.171,2.452 2.241,4.098l1.436,0l0,-14.221c0,-5.289 0.491,-5.919 2.943,-6.165l0,-1.436c-2.452,0.175 -6.48,0.245 -11.069,0.245c-4.308,0 -10.473,-0.07 -13.695,-0.245l0,1.436c6.024,0.246 7.25,1.366 7.25,8.337l0,7.18c0,1.717 -0.49,2.873 -1.506,3.573c-0.876,0.596 -1.997,0.876 -3.538,0.876c-6.935,0 -11.524,-7.601 -11.524,-24.834c0,-10.754 3.153,-24.309 14.186,-24.309c2.522,0 5.395,0.77 7.391,2.136c4.729,3.223 5.955,7.671 6.62,14.572l1.646,0c0,-9.037 0.071,-14.116 0.281,-17.934l-1.647,0c-0.28,2.942 -0.805,4.308 -1.786,4.308c-0.455,0 -0.946,-0.21 -1.436,-0.665c-3.223,-2.557 -7.251,-4.659 -13.941,-4.659Z" style="fill:#9dc5bf;fill-rule:nonzero;"/><path d="M89.478,13.555c-4.168,0 -7.391,1.752 -9.282,5.395l0,-5.149c-3.573,0.7 -7.671,0.98 -12.47,0.98c-1.436,0 -2.942,-0.07 -4.449,-0.21l0,1.506c3.013,0 4.029,1.997 4.029,6.305l0,22.768c0,3.993 -1.086,5.149 -4.029,5.149l0,1.506c2.207,-0.07 7.181,-0.28 11.489,-0.28c4.589,0 9.388,0.21 11.594,0.28l0,-1.506c-4.343,0 -6.164,-1.296 -6.164,-5.885l0,-21.506c0,-2.872 1.891,-5.394 4.238,-6.41c0.735,-0.35 1.506,-0.491 2.312,-0.491c-2.172,1.437 -3.678,3.433 -3.678,6.691c0,3.082 2.171,5.149 6.41,5.149c3.923,0 6.585,-2.733 6.585,-7.041c0,-3.292 -1.436,-7.251 -6.585,-7.251Z" style="fill:#9dc5bf;fill-rule:nonzero;"/><path d="M119.37,13.555c-5.009,0 -8.547,0.806 -11.489,2.312c-2.557,1.366 -4.448,3.573 -4.448,6.585c0,3.538 2.311,6.27 5.884,6.27c4.168,0 6.9,-2.662 6.9,-6.024c0,-3.258 -1.716,-5.325 -4.798,-6.48c1.051,-0.701 2.557,-1.226 3.783,-1.226c4.588,0 5.324,3.677 5.324,5.884l0,6.41c0,3.223 -4.379,4.659 -9.983,6.655c-6.305,2.067 -9.107,5.254 -9.107,10.123c0,4.939 3.293,8.231 9.037,8.231c4.448,0 8.266,-2.136 10.263,-5.429c0.07,2.873 1.997,5.429 7.391,5.429c4.098,0 7.04,-0.7 9.317,-2.627l-0.701,-1.225c-0.665,0.49 -1.366,1.05 -2.241,1.05c-0.771,0 -1.086,-0.77 -1.086,-3.082l0,-19.195c0,-4.974 -0.35,-7.986 -2.347,-10.053c-2.732,-2.872 -6.69,-3.608 -11.699,-3.608Zm1.156,31.805c-0.876,0.911 -1.646,1.191 -2.662,1.191c-2.067,0 -3.643,-1.331 -3.643,-5.079c0,-3.503 1.366,-6.025 3.503,-8.091c1.015,-1.016 2.206,-2.172 2.802,-3.153l0,15.132Z" style="fill:#9dc5bf;fill-rule:nonzero;"/><path d="M173.676,14.851c-1.751,0 -5.534,-0.07 -7.566,-0.28l0,1.506c2.977,0.211 5.254,2.522 5.254,7.216c0,1.997 -0.385,4.448 -1.366,7.356l-2.977,9.177l-8.862,-21.016c-0.21,-0.456 -0.28,-0.806 -0.28,-1.121c0,-1.577 2.136,-1.612 4.308,-1.612l0,-1.506c-2.872,0.21 -5.955,0.421 -10.403,0.421c-3.608,0 -7.881,-0.141 -11.699,-0.421l0,1.506c1.016,0 2.522,0.351 4.168,4.029l16.743,36.988l-0.385,1.156c-1.296,3.958 -3.748,5.745 -6.83,5.745c-0.561,0 -1.717,0 -2.417,-0.141c3.222,-1.015 4.658,-3.432 4.658,-5.534c0,-3.503 -2.522,-5.289 -6.48,-5.289c-4.203,0 -7.005,2.137 -7.005,5.534c0,5.009 5.814,6.726 9.737,6.726c3.538,0 5.395,-0.701 6.691,-1.717c1.366,-1.086 2.276,-2.732 3.152,-5.184l3.012,-8.651l8.967,-26.691c1.577,-4.659 3.293,-6.305 5.079,-6.971l0,-1.506c-1.086,0.21 -3.783,0.28 -5.499,0.28Z" style="fill:#9dc5bf;fill-rule:nonzero;"/></svg>